<svg xmlns="http://www.w3.org/2000/svg" xmlns:xlink="http://www.w3.org/1999/xlink" width="500" zoomAndPan="magnify" viewBox="0 0 375 374.999991" height="500" preserveAspectRatio="xMidYMid meet" version="1.0"><defs><g/><clipPath id="ccd8291289"><path d="M 44.023438 37.5 L 331.273438 37.5 L 331.273438 285.75 L 44.023438 285.75 Z M 44.023438 37.5 " clip-rule="nonzero"/></clipPath><clipPath id="e7290dfbba"><path d="M 51 316.199219 L 67 316.199219 L 67 320.699219 L 51 320.699219 Z M 51 316.199219 " clip-rule="nonzero"/></clipPath><clipPath id="e6f3af214b"><path d="M 43.5 316.199219 L 51 316.199219 L 51 320.699219 L 43.5 320.699219 Z M 43.5 316.199219 " clip-rule="nonzero"/></clipPath><clipPath id="1a4f67be30"><path d="M 307 316.199219 L 324 316.199219 L 324 320.699219 L 307 320.699219 Z M 307 316.199219 " clip-rule="nonzero"/></clipPath><clipPath id="bc84a90c4b"><path d="M 323 316.199219 L 330.75 316.199219 L 330.75 320.699219 L 323 320.699219 Z M 323 316.199219 " clip-rule="nonzero"/></clipPath><clipPath id="b35c95c0d2"><path d="M 126 155 L 249 155 L 249 199.101562 L 126 199.101562 Z M 126 155 " clip-rule="nonzero"/></clipPath></defs><rect x="-37.5" width="450" fill="#ffffff" y="-37.499999" height="449.999989" fill-opacity="1"/><rect x="-37.5" width="450" fill="#ffffff" y="-37.499999" height="449.999989" fill-opacity="1"/><rect x="-37.5" width="450" fill="#ffffff" y="-37.499999" height="449.999989" fill-opacity="1"/><g clip-path="url(#ccd8291289)"><path fill="#074200" d="M 331.222656 285.792969 L 44.113281 285.792969 L 187.667969 37.5 Z M 331.222656 285.792969 " fill-opacity="1" fill-rule="nonzero"/></g><g clip-path="url(#e7290dfbba)"><path fill="#074200" d="M 65.855469 317.390625 C 65.574219 317.390625 65.324219 317.515625 65.140625 317.71875 C 65.125 317.691406 65.105469 317.675781 65.089844 317.648438 C 65.027344 317.5625 64.957031 317.484375 64.894531 317.402344 C 64.757812 317.242188 64.613281 317.082031 64.457031 316.925781 C 64.308594 316.769531 64.148438 316.628906 63.988281 316.492188 L 63.957031 316.46875 C 63.574219 316.710938 63.171875 316.925781 62.757812 317.113281 C 62.730469 317.125 62.707031 317.136719 62.675781 317.148438 L 62.597656 317.179688 L 62.433594 317.246094 C 62.433594 317.246094 62.382812 317.273438 62.355469 317.277344 L 62.109375 317.371094 C 62 317.410156 61.882812 317.445312 61.773438 317.484375 L 61.609375 317.53125 C 61.550781 317.550781 61.492188 317.5625 61.441406 317.582031 C 60.539062 317.824219 59.601562 317.929688 58.671875 317.890625 C 57.746094 317.855469 56.824219 317.691406 55.9375 317.414062 C 55.152344 317.167969 54.386719 316.839844 53.664062 316.4375 C 52.996094 316.84375 52.363281 317.328125 51.777344 317.859375 C 51.566406 318.050781 51.363281 318.25 51.164062 318.453125 C 51.363281 318.660156 51.566406 318.855469 51.777344 319.050781 C 52.363281 319.582031 52.996094 320.0625 53.664062 320.472656 C 54.386719 320.070312 55.152344 319.734375 55.9375 319.496094 C 56.824219 319.214844 57.742188 319.054688 58.671875 319.019531 C 59.597656 318.980469 60.535156 319.085938 61.441406 319.328125 C 61.5 319.339844 61.554688 319.359375 61.609375 319.378906 L 61.773438 319.425781 C 61.882812 319.464844 62 319.5 62.109375 319.539062 L 62.355469 319.632812 C 62.355469 319.632812 62.414062 319.648438 62.433594 319.660156 L 62.597656 319.730469 L 62.675781 319.761719 C 62.675781 319.761719 62.730469 319.785156 62.757812 319.796875 C 63.171875 319.984375 63.574219 320.195312 63.957031 320.441406 C 63.96875 320.4375 63.976562 320.421875 63.988281 320.417969 C 64.148438 320.28125 64.300781 320.136719 64.457031 319.984375 C 64.605469 319.828125 64.757812 319.675781 64.894531 319.507812 C 64.964844 319.425781 65.03125 319.339844 65.089844 319.257812 C 65.105469 319.234375 65.125 319.214844 65.140625 319.191406 C 65.320312 319.390625 65.574219 319.519531 65.855469 319.519531 C 66.398438 319.519531 66.835938 319.042969 66.835938 318.460938 C 66.835938 317.878906 66.394531 317.402344 65.855469 317.402344 Z M 65.855469 317.390625 " fill-opacity="1" fill-rule="nonzero"/></g><g clip-path="url(#e6f3af214b)"><path fill="#074200" d="M 50.386719 317.929688 C 50.246094 317.636719 50.117188 317.339844 50.015625 317.039062 C 49.945312 317.019531 49.875 317 49.800781 316.988281 C 49.257812 316.863281 48.652344 316.8125 48.003906 316.863281 C 47.359375 316.902344 46.675781 317.042969 45.976562 317.273438 C 45.160156 317.539062 44.320312 317.941406 43.503906 318.453125 C 44.320312 318.96875 45.160156 319.363281 45.976562 319.636719 C 46.675781 319.867188 47.359375 320.003906 48.003906 320.046875 C 48.324219 320.070312 48.636719 320.0625 48.941406 320.046875 C 49.089844 320.035156 49.238281 320.019531 49.382812 319.996094 C 49.453125 319.984375 49.527344 319.976562 49.59375 319.964844 C 49.664062 319.953125 49.734375 319.933594 49.800781 319.921875 C 49.875 319.902344 49.945312 319.890625 50.015625 319.871094 C 50.117188 319.570312 50.246094 319.273438 50.386719 318.980469 C 50.457031 318.839844 50.53125 318.703125 50.613281 318.574219 C 50.636719 318.535156 50.660156 318.5 50.679688 318.460938 C 50.660156 318.421875 50.636719 318.386719 50.613281 318.347656 C 50.53125 318.214844 50.457031 318.078125 50.386719 317.933594 Z M 50.386719 317.929688 " fill-opacity="1" fill-rule="nonzero"/></g><g clip-path="url(#1a4f67be30)"><path fill="#074200" d="M 320.59375 316.4375 C 319.867188 316.839844 319.105469 317.171875 318.316406 317.414062 C 317.433594 317.691406 316.515625 317.855469 315.582031 317.890625 C 314.660156 317.929688 313.722656 317.824219 312.8125 317.582031 C 312.757812 317.570312 312.699219 317.550781 312.648438 317.53125 L 312.480469 317.484375 C 312.371094 317.445312 312.257812 317.410156 312.148438 317.371094 L 311.980469 317.308594 L 311.902344 317.277344 C 311.902344 317.277344 311.84375 317.261719 311.820312 317.246094 L 311.660156 317.179688 L 311.578125 317.148438 C 311.578125 317.148438 311.527344 317.125 311.5 317.113281 C 311.085938 316.925781 310.683594 316.714844 310.296875 316.46875 L 310.269531 316.492188 C 310.109375 316.628906 309.953125 316.769531 309.796875 316.925781 C 309.648438 317.082031 309.5 317.234375 309.359375 317.402344 C 309.292969 317.484375 309.222656 317.570312 309.164062 317.648438 C 309.148438 317.675781 309.132812 317.691406 309.113281 317.71875 C 308.9375 317.519531 308.683594 317.390625 308.402344 317.390625 C 307.855469 317.390625 307.417969 317.867188 307.417969 318.449219 C 307.417969 319.03125 307.863281 319.507812 308.402344 319.507812 C 308.683594 319.507812 308.929688 319.382812 309.113281 319.179688 C 309.132812 319.203125 309.148438 319.222656 309.164062 319.246094 C 309.230469 319.332031 309.296875 319.414062 309.359375 319.496094 C 309.5 319.65625 309.644531 319.816406 309.796875 319.972656 C 309.949219 320.125 310.109375 320.269531 310.269531 320.40625 C 310.28125 320.410156 310.285156 320.421875 310.296875 320.429688 C 310.683594 320.1875 311.085938 319.972656 311.5 319.785156 C 311.527344 319.773438 311.550781 319.761719 311.578125 319.75 L 311.660156 319.71875 L 311.820312 319.648438 C 311.820312 319.648438 311.871094 319.625 311.902344 319.617188 L 311.980469 319.585938 L 312.148438 319.527344 C 312.257812 319.488281 312.371094 319.453125 312.480469 319.414062 L 312.648438 319.363281 C 312.703125 319.347656 312.761719 319.332031 312.8125 319.316406 C 313.714844 319.074219 314.652344 318.96875 315.582031 319.003906 C 316.507812 319.042969 317.433594 319.203125 318.316406 319.480469 C 319.105469 319.730469 319.867188 320.058594 320.59375 320.460938 C 321.257812 320.050781 321.890625 319.574219 322.476562 319.035156 C 322.691406 318.84375 322.890625 318.648438 323.09375 318.441406 C 322.890625 318.238281 322.691406 318.039062 322.476562 317.847656 C 321.890625 317.316406 321.257812 316.832031 320.59375 316.425781 Z M 320.59375 316.4375 " fill-opacity="1" fill-rule="nonzero"/></g><g clip-path="url(#bc84a90c4b)"><path fill="#074200" d="M 328.28125 317.273438 C 327.578125 317.042969 326.894531 316.90625 326.25 316.863281 C 325.609375 316.8125 325.003906 316.863281 324.453125 316.988281 C 324.382812 317 324.308594 317.019531 324.242188 317.039062 C 324.136719 317.339844 324.011719 317.636719 323.867188 317.929688 C 323.796875 318.070312 323.71875 318.207031 323.644531 318.34375 C 323.621094 318.378906 323.597656 318.417969 323.574219 318.453125 C 323.597656 318.492188 323.621094 318.527344 323.644531 318.566406 C 323.722656 318.703125 323.796875 318.839844 323.867188 318.976562 C 324.011719 319.265625 324.136719 319.5625 324.242188 319.867188 C 324.308594 319.882812 324.382812 319.902344 324.453125 319.914062 C 324.523438 319.929688 324.589844 319.945312 324.660156 319.960938 C 324.730469 319.972656 324.804688 319.976562 324.871094 319.988281 C 325.015625 320.015625 325.164062 320.019531 325.316406 320.039062 C 325.621094 320.058594 325.929688 320.0625 326.25 320.039062 C 326.894531 319.996094 327.578125 319.859375 328.28125 319.632812 C 329.09375 319.363281 329.933594 318.960938 330.75 318.449219 C 329.933594 317.933594 329.09375 317.53125 328.28125 317.265625 Z M 328.28125 317.273438 " fill-opacity="1" fill-rule="nonzero"/></g><path fill="#074200" d="M 305.777344 317.453125 C 305.398438 317.453125 305.070312 317.699219 304.925781 318.050781 L 302.105469 318.050781 C 301.972656 317.792969 301.714844 317.613281 301.414062 317.613281 C 301.117188 317.613281 300.859375 317.792969 300.726562 318.050781 L 73.519531 318.050781 C 73.386719 317.792969 73.128906 317.613281 72.828125 317.613281 C 72.53125 317.613281 72.269531 317.792969 72.140625 318.050781 L 69.316406 318.050781 C 69.175781 317.699219 68.847656 317.453125 68.46875 317.453125 C 67.957031 317.453125 67.535156 317.898438 67.535156 318.453125 C 67.535156 319.011719 67.949219 319.457031 68.46875 319.457031 C 68.847656 319.457031 69.175781 319.210938 69.316406 318.855469 L 72.140625 318.855469 C 72.269531 319.117188 72.53125 319.296875 72.828125 319.296875 C 73.128906 319.296875 73.386719 319.117188 73.519531 318.855469 L 300.730469 318.855469 C 300.863281 319.117188 301.121094 319.296875 301.421875 319.296875 C 301.71875 319.296875 301.980469 319.117188 302.109375 318.855469 L 304.933594 318.855469 C 305.074219 319.210938 305.402344 319.457031 305.78125 319.457031 C 306.292969 319.457031 306.714844 319.011719 306.714844 318.453125 C 306.714844 317.898438 306.300781 317.453125 305.78125 317.453125 Z M 305.777344 317.453125 " fill-opacity="1" fill-rule="nonzero"/><path fill="#ffffff" d="M 145.992188 147.652344 C 145.992188 148.132812 145.945312 148.613281 145.851562 149.085938 C 145.757812 149.558594 145.617188 150.019531 145.433594 150.464844 C 145.25 150.910156 145.023438 151.332031 144.753906 151.734375 C 144.488281 152.136719 144.183594 152.507812 143.839844 152.847656 C 143.5 153.191406 143.128906 153.496094 142.726562 153.761719 C 142.324219 154.03125 141.902344 154.257812 141.457031 154.441406 C 141.011719 154.625 140.550781 154.765625 140.078125 154.859375 C 139.605469 154.953125 139.125 155 138.644531 155 C 138.160156 155 137.683594 154.953125 137.210938 154.859375 C 136.738281 154.765625 136.277344 154.625 135.832031 154.441406 C 135.386719 154.257812 134.960938 154.03125 134.558594 153.761719 C 134.160156 153.496094 133.789062 153.191406 133.445312 152.847656 C 133.105469 152.507812 132.800781 152.136719 132.53125 151.734375 C 132.265625 151.332031 132.039062 150.910156 131.851562 150.464844 C 131.667969 150.019531 131.527344 149.558594 131.433594 149.085938 C 131.339844 148.613281 131.292969 148.132812 131.292969 147.652344 C 131.292969 147.167969 131.339844 146.691406 131.433594 146.21875 C 131.527344 145.742188 131.667969 145.285156 131.851562 144.839844 C 132.039062 144.390625 132.265625 143.96875 132.53125 143.566406 C 132.800781 143.167969 133.105469 142.796875 133.445312 142.453125 C 133.789062 142.113281 134.160156 141.808594 134.558594 141.539062 C 134.960938 141.273438 135.386719 141.046875 135.832031 140.859375 C 136.277344 140.675781 136.738281 140.535156 137.210938 140.441406 C 137.683594 140.347656 138.160156 140.300781 138.644531 140.300781 C 139.125 140.300781 139.605469 140.347656 140.078125 140.441406 C 140.550781 140.535156 141.011719 140.675781 141.457031 140.859375 C 141.902344 141.046875 142.324219 141.273438 142.726562 141.539062 C 143.128906 141.808594 143.5 142.113281 143.839844 142.453125 C 144.183594 142.796875 144.488281 143.167969 144.753906 143.566406 C 145.023438 143.96875 145.25 144.390625 145.433594 144.839844 C 145.617188 145.285156 145.757812 145.742188 145.851562 146.21875 C 145.945312 146.691406 145.992188 147.167969 145.992188 147.652344 Z M 145.992188 147.652344 " fill-opacity="1" fill-rule="nonzero"/><g clip-path="url(#b35c95c0d2)"><path fill="#ffffff" d="M 126.394531 164.800781 L 126.394531 177.050781 L 131.292969 179.5 L 131.292969 199.101562 L 145.992188 199.101562 L 145.992188 179.5 L 150.894531 177.050781 L 155.792969 179.5 L 155.792969 199.101562 L 170.492188 199.101562 L 170.492188 179.5 L 175.394531 177.050781 L 180.292969 179.5 L 180.292969 199.101562 L 194.992188 199.101562 L 194.992188 179.5 L 199.894531 177.050781 L 204.792969 179.5 L 204.792969 199.101562 L 219.492188 199.101562 L 219.492188 179.5 L 224.394531 177.050781 L 229.292969 179.5 L 229.292969 199.101562 L 243.992188 199.101562 L 243.992188 179.5 L 248.894531 177.050781 L 248.894531 164.800781 C 248.894531 159.390625 244.507812 155 239.09375 155 L 234.195312 155 C 228.78125 155 224.394531 159.390625 224.394531 164.800781 C 224.394531 159.390625 220.007812 155 214.59375 155 L 209.695312 155 C 204.28125 155 199.894531 159.390625 199.894531 164.800781 C 199.894531 159.390625 195.507812 155 190.09375 155 L 185.195312 155 C 179.78125 155 175.394531 159.390625 175.394531 164.800781 C 175.394531 159.390625 171.007812 155 165.59375 155 L 160.695312 155 C 155.28125 155 150.894531 159.390625 150.894531 164.800781 C 150.894531 159.390625 146.507812 155 141.09375 155 L 136.195312 155 C 130.78125 155 126.394531 159.390625 126.394531 164.800781 Z M 126.394531 164.800781 " fill-opacity="1" fill-rule="nonzero"/></g><path fill="#ffffff" d="M 170.492188 147.652344 C 170.492188 148.132812 170.445312 148.613281 170.351562 149.085938 C 170.257812 149.558594 170.117188 150.019531 169.933594 150.464844 C 169.75 150.910156 169.523438 151.332031 169.253906 151.734375 C 168.988281 152.136719 168.683594 152.507812 168.339844 152.847656 C 168 153.191406 167.628906 153.496094 167.226562 153.761719 C 166.824219 154.03125 166.402344 154.257812 165.957031 154.441406 C 165.511719 154.625 165.050781 154.765625 164.578125 154.859375 C 164.105469 154.953125 163.625 155 163.144531 155 C 162.660156 155 162.183594 154.953125 161.710938 154.859375 C 161.238281 154.765625 160.777344 154.625 160.332031 154.441406 C 159.886719 154.257812 159.460938 154.03125 159.058594 153.761719 C 158.660156 153.496094 158.289062 153.191406 157.945312 152.847656 C 157.605469 152.507812 157.300781 152.136719 157.03125 151.734375 C 156.765625 151.332031 156.539062 150.910156 156.351562 150.464844 C 156.167969 150.019531 156.027344 149.558594 155.933594 149.085938 C 155.839844 148.613281 155.792969 148.132812 155.792969 147.652344 C 155.792969 147.167969 155.839844 146.691406 155.933594 146.21875 C 156.027344 145.742188 156.167969 145.285156 156.351562 144.839844 C 156.539062 144.390625 156.765625 143.96875 157.03125 143.566406 C 157.300781 143.167969 157.605469 142.796875 157.945312 142.453125 C 158.289062 142.113281 158.660156 141.808594 159.058594 141.539062 C 159.460938 141.273438 159.886719 141.046875 160.332031 140.859375 C 160.777344 140.675781 161.238281 140.535156 161.710938 140.441406 C 162.183594 140.347656 162.660156 140.300781 163.144531 140.300781 C 163.625 140.300781 164.105469 140.347656 164.578125 140.441406 C 165.050781 140.535156 165.511719 140.675781 165.957031 140.859375 C 166.402344 141.046875 166.824219 141.273438 167.226562 141.539062 C 167.628906 141.808594 168 142.113281 168.339844 142.453125 C 168.683594 142.796875 168.988281 143.167969 169.253906 143.566406 C 169.523438 143.96875 169.75 144.390625 169.933594 144.839844 C 170.117188 145.285156 170.257812 145.742188 170.351562 146.21875 C 170.445312 146.691406 170.492188 147.167969 170.492188 147.652344 Z M 170.492188 147.652344 " fill-opacity="1" fill-rule="nonzero"/><path fill="#ffffff" d="M 194.992188 147.652344 C 194.992188 148.132812 194.945312 148.613281 194.851562 149.085938 C 194.757812 149.558594 194.617188 150.019531 194.433594 150.464844 C 194.25 150.910156 194.023438 151.332031 193.753906 151.734375 C 193.488281 152.136719 193.183594 152.507812 192.839844 152.847656 C 192.5 153.191406 192.128906 153.496094 191.726562 153.761719 C 191.324219 154.03125 190.902344 154.257812 190.457031 154.441406 C 190.011719 154.625 189.550781 154.765625 189.078125 154.859375 C 188.605469 154.953125 188.125 155 187.644531 155 C 187.160156 155 186.683594 154.953125 186.210938 154.859375 C 185.738281 154.765625 185.277344 154.625 184.832031 154.441406 C 184.386719 154.257812 183.960938 154.03125 183.558594 153.761719 C 183.160156 153.496094 182.789062 153.191406 182.445312 152.847656 C 182.105469 152.507812 181.800781 152.136719 181.53125 151.734375 C 181.265625 151.332031 181.039062 150.910156 180.851562 150.464844 C 180.667969 150.019531 180.527344 149.558594 180.433594 149.085938 C 180.339844 148.613281 180.292969 148.132812 180.292969 147.652344 C 180.292969 147.167969 180.339844 146.691406 180.433594 146.21875 C 180.527344 145.742188 180.667969 145.285156 180.851562 144.839844 C 181.039062 144.390625 181.265625 143.96875 181.53125 143.566406 C 181.800781 143.167969 182.105469 142.796875 182.445312 142.453125 C 182.789062 142.113281 183.160156 141.808594 183.558594 141.539062 C 183.960938 141.273438 184.386719 141.046875 184.832031 140.859375 C 185.277344 140.675781 185.738281 140.535156 186.210938 140.441406 C 186.683594 140.347656 187.160156 140.300781 187.644531 140.300781 C 188.125 140.300781 188.605469 140.347656 189.078125 140.441406 C 189.550781 140.535156 190.011719 140.675781 190.457031 140.859375 C 190.902344 141.046875 191.324219 141.273438 191.726562 141.539062 C 192.128906 141.808594 192.5 142.113281 192.839844 142.453125 C 193.183594 142.796875 193.488281 143.167969 193.753906 143.566406 C 194.023438 143.96875 194.25 144.390625 194.433594 144.839844 C 194.617188 145.285156 194.757812 145.742188 194.851562 146.21875 C 194.945312 146.691406 194.992188 147.167969 194.992188 147.652344 Z M 194.992188 147.652344 " fill-opacity="1" fill-rule="nonzero"/><path fill="#ffffff" d="M 219.492188 147.652344 C 219.492188 148.132812 219.445312 148.613281 219.351562 149.085938 C 219.257812 149.558594 219.117188 150.019531 218.933594 150.464844 C 218.75 150.910156 218.523438 151.332031 218.253906 151.734375 C 217.988281 152.136719 217.683594 152.507812 217.339844 152.847656 C 217 153.191406 216.628906 153.496094 216.226562 153.761719 C 215.824219 154.03125 215.402344 154.257812 214.957031 154.441406 C 214.511719 154.625 214.050781 154.765625 213.578125 154.859375 C 213.105469 154.953125 212.625 155 212.144531 155 C 211.660156 155 211.183594 154.953125 210.710938 154.859375 C 210.238281 154.765625 209.777344 154.625 209.332031 154.441406 C 208.886719 154.257812 208.460938 154.03125 208.058594 153.761719 C 207.660156 153.496094 207.289062 153.191406 206.945312 152.847656 C 206.605469 152.507812 206.300781 152.136719 206.03125 151.734375 C 205.765625 151.332031 205.539062 150.910156 205.351562 150.464844 C 205.167969 150.019531 205.027344 149.558594 204.933594 149.085938 C 204.839844 148.613281 204.792969 148.132812 204.792969 147.652344 C 204.792969 147.167969 204.839844 146.691406 204.933594 146.21875 C 205.027344 145.742188 205.167969 145.285156 205.351562 144.839844 C 205.539062 144.390625 205.765625 143.96875 206.03125 143.566406 C 206.300781 143.167969 206.605469 142.796875 206.945312 142.453125 C 207.289062 142.113281 207.660156 141.808594 208.058594 141.539062 C 208.460938 141.273438 208.886719 141.046875 209.332031 140.859375 C 209.777344 140.675781 210.238281 140.535156 210.710938 140.441406 C 211.183594 140.347656 211.660156 140.300781 212.144531 140.300781 C 212.625 140.300781 213.105469 140.347656 213.578125 140.441406 C 214.050781 140.535156 214.511719 140.675781 214.957031 140.859375 C 215.402344 141.046875 215.824219 141.273438 216.226562 141.539062 C 216.628906 141.808594 217 142.113281 217.339844 142.453125 C 217.683594 142.796875 217.988281 143.167969 218.253906 143.566406 C 218.523438 143.96875 218.75 144.390625 218.933594 144.839844 C 219.117188 145.285156 219.257812 145.742188 219.351562 146.21875 C 219.445312 146.691406 219.492188 147.167969 219.492188 147.652344 Z M 219.492188 147.652344 " fill-opacity="1" fill-rule="nonzero"/><path fill="#ffffff" d="M 243.992188 147.652344 C 243.992188 148.132812 243.945312 148.613281 243.851562 149.085938 C 243.757812 149.558594 243.617188 150.019531 243.433594 150.464844 C 243.25 150.910156 243.023438 151.332031 242.753906 151.734375 C 242.488281 152.136719 242.183594 152.507812 241.839844 152.847656 C 241.5 153.191406 241.128906 153.496094 240.726562 153.761719 C 240.324219 154.03125 239.902344 154.257812 239.457031 154.441406 C 239.011719 154.625 238.550781 154.765625 238.078125 154.859375 C 237.605469 154.953125 237.125 155 236.644531 155 C 236.160156 155 235.683594 154.953125 235.210938 154.859375 C 234.738281 154.765625 234.277344 154.625 233.832031 154.441406 C 233.386719 154.257812 232.960938 154.03125 232.558594 153.761719 C 232.160156 153.496094 231.789062 153.191406 231.445312 152.847656 C 231.105469 152.507812 230.800781 152.136719 230.53125 151.734375 C 230.265625 151.332031 230.039062 150.910156 229.851562 150.464844 C 229.667969 150.019531 229.527344 149.558594 229.433594 149.085938 C 229.339844 148.613281 229.292969 148.132812 229.292969 147.652344 C 229.292969 147.167969 229.339844 146.691406 229.433594 146.21875 C 229.527344 145.742188 229.667969 145.285156 229.851562 144.839844 C 230.039062 144.390625 230.265625 143.96875 230.53125 143.566406 C 230.800781 143.167969 231.105469 142.796875 231.445312 142.453125 C 231.789062 142.113281 232.160156 141.808594 232.558594 141.539062 C 232.960938 141.273438 233.386719 141.046875 233.832031 140.859375 C 234.277344 140.675781 234.738281 140.535156 235.210938 140.441406 C 235.683594 140.347656 236.160156 140.300781 236.644531 140.300781 C 237.125 140.300781 237.605469 140.347656 238.078125 140.441406 C 238.550781 140.535156 239.011719 140.675781 239.457031 140.859375 C 239.902344 141.046875 240.324219 141.273438 240.726562 141.539062 C 241.128906 141.808594 241.5 142.113281 241.839844 142.453125 C 242.183594 142.796875 242.488281 143.167969 242.753906 143.566406 C 243.023438 143.96875 243.25 144.390625 243.433594 144.839844 C 243.617188 145.285156 243.757812 145.742188 243.851562 146.21875 C 243.945312 146.691406 243.992188 147.167969 243.992188 147.652344 Z M 243.992188 147.652344 " fill-opacity="1" fill-rule="nonzero"/><path fill="#ffffff" d="M 158.242188 132.949219 C 158.242188 133.433594 158.195312 133.910156 158.101562 134.386719 C 158.007812 134.859375 157.867188 135.316406 157.683594 135.765625 C 157.5 136.210938 157.273438 136.632812 157.003906 137.035156 C 156.738281 137.4375 156.433594 137.808594 156.089844 138.148438 C 155.75 138.488281 155.378906 138.792969 154.976562 139.0625 C 154.574219 139.332031 154.152344 139.558594 153.707031 139.742188 C 153.261719 139.925781 152.800781 140.066406 152.328125 140.160156 C 151.855469 140.253906 151.375 140.300781 150.894531 140.300781 C 150.410156 140.300781 149.933594 140.253906 149.460938 140.160156 C 148.988281 140.066406 148.527344 139.925781 148.082031 139.742188 C 147.636719 139.558594 147.210938 139.332031 146.808594 139.0625 C 146.410156 138.792969 146.039062 138.488281 145.695312 138.148438 C 145.355469 137.808594 145.050781 137.4375 144.78125 137.035156 C 144.515625 136.632812 144.289062 136.210938 144.101562 135.765625 C 143.917969 135.316406 143.777344 134.859375 143.683594 134.386719 C 143.589844 133.910156 143.542969 133.433594 143.542969 132.949219 C 143.542969 132.46875 143.589844 131.992188 143.683594 131.515625 C 143.777344 131.042969 143.917969 130.585938 144.101562 130.136719 C 144.289062 129.691406 144.515625 129.269531 144.78125 128.867188 C 145.050781 128.464844 145.355469 128.09375 145.695312 127.753906 C 146.039062 127.414062 146.410156 127.109375 146.808594 126.839844 C 147.210938 126.570312 147.636719 126.34375 148.082031 126.160156 C 148.527344 125.976562 148.988281 125.835938 149.460938 125.742188 C 149.933594 125.648438 150.410156 125.601562 150.894531 125.601562 C 151.375 125.601562 151.855469 125.648438 152.328125 125.742188 C 152.800781 125.835938 153.261719 125.976562 153.707031 126.160156 C 154.152344 126.34375 154.574219 126.570312 154.976562 126.839844 C 155.378906 127.109375 155.75 127.414062 156.089844 127.753906 C 156.433594 128.09375 156.738281 128.464844 157.003906 128.867188 C 157.273438 129.269531 157.5 129.691406 157.683594 130.136719 C 157.867188 130.585938 158.007812 131.042969 158.101562 131.515625 C 158.195312 131.992188 158.242188 132.46875 158.242188 132.949219 Z M 158.242188 132.949219 " fill-opacity="1" fill-rule="nonzero"/><path fill="#ffffff" d="M 182.742188 132.949219 C 182.742188 133.433594 182.695312 133.910156 182.601562 134.386719 C 182.507812 134.859375 182.367188 135.316406 182.183594 135.765625 C 182 136.210938 181.773438 136.632812 181.503906 137.035156 C 181.238281 137.4375 180.933594 137.808594 180.589844 138.148438 C 180.25 138.488281 179.878906 138.792969 179.476562 139.0625 C 179.074219 139.332031 178.652344 139.558594 178.207031 139.742188 C 177.761719 139.925781 177.300781 140.066406 176.828125 140.160156 C 176.355469 140.253906 175.875 140.300781 175.394531 140.300781 C 174.910156 140.300781 174.433594 140.253906 173.960938 140.160156 C 173.488281 140.066406 173.027344 139.925781 172.582031 139.742188 C 172.136719 139.558594 171.710938 139.332031 171.308594 139.0625 C 170.910156 138.792969 170.539062 138.488281 170.195312 138.148438 C 169.855469 137.808594 169.550781 137.4375 169.28125 137.035156 C 169.015625 136.632812 168.789062 136.210938 168.601562 135.765625 C 168.417969 135.316406 168.277344 134.859375 168.183594 134.386719 C 168.089844 133.910156 168.042969 133.433594 168.042969 132.949219 C 168.042969 132.46875 168.089844 131.992188 168.183594 131.515625 C 168.277344 131.042969 168.417969 130.585938 168.601562 130.136719 C 168.789062 129.691406 169.015625 129.269531 169.28125 128.867188 C 169.550781 128.464844 169.855469 128.09375 170.195312 127.753906 C 170.539062 127.414062 170.910156 127.109375 171.308594 126.839844 C 171.710938 126.570312 172.136719 126.34375 172.582031 126.160156 C 173.027344 125.976562 173.488281 125.835938 173.960938 125.742188 C 174.433594 125.648438 174.910156 125.601562 175.394531 125.601562 C 175.875 125.601562 176.355469 125.648438 176.828125 125.742188 C 177.300781 125.835938 177.761719 125.976562 178.207031 126.160156 C 178.652344 126.34375 179.074219 126.570312 179.476562 126.839844 C 179.878906 127.109375 180.25 127.414062 180.589844 127.753906 C 180.933594 128.09375 181.238281 128.464844 181.503906 128.867188 C 181.773438 129.269531 182 129.691406 182.183594 130.136719 C 182.367188 130.585938 182.507812 131.042969 182.601562 131.515625 C 182.695312 131.992188 182.742188 132.46875 182.742188 132.949219 Z M 182.742188 132.949219 " fill-opacity="1" fill-rule="nonzero"/><path fill="#ffffff" d="M 207.242188 132.949219 C 207.242188 133.433594 207.195312 133.910156 207.101562 134.386719 C 207.007812 134.859375 206.867188 135.316406 206.683594 135.765625 C 206.5 136.210938 206.273438 136.632812 206.003906 137.035156 C 205.738281 137.4375 205.433594 137.808594 205.089844 138.148438 C 204.75 138.488281 204.378906 138.792969 203.976562 139.0625 C 203.574219 139.332031 203.152344 139.558594 202.707031 139.742188 C 202.261719 139.925781 201.800781 140.066406 201.328125 140.160156 C 200.855469 140.253906 200.375 140.300781 199.894531 140.300781 C 199.410156 140.300781 198.933594 140.253906 198.460938 140.160156 C 197.988281 140.066406 197.527344 139.925781 197.082031 139.742188 C 196.636719 139.558594 196.210938 139.332031 195.808594 139.0625 C 195.410156 138.792969 195.039062 138.488281 194.695312 138.148438 C 194.355469 137.808594 194.050781 137.4375 193.78125 137.035156 C 193.515625 136.632812 193.289062 136.210938 193.101562 135.765625 C 192.917969 135.316406 192.777344 134.859375 192.683594 134.386719 C 192.589844 133.910156 192.542969 133.433594 192.542969 132.949219 C 192.542969 132.46875 192.589844 131.992188 192.683594 131.515625 C 192.777344 131.042969 192.917969 130.585938 193.101562 130.136719 C 193.289062 129.691406 193.515625 129.269531 193.78125 128.867188 C 194.050781 128.464844 194.355469 128.09375 194.695312 127.753906 C 195.039062 127.414062 195.410156 127.109375 195.808594 126.839844 C 196.210938 126.570312 196.636719 126.34375 197.082031 126.160156 C 197.527344 125.976562 197.988281 125.835938 198.460938 125.742188 C 198.933594 125.648438 199.410156 125.601562 199.894531 125.601562 C 200.375 125.601562 200.855469 125.648438 201.328125 125.742188 C 201.800781 125.835938 202.261719 125.976562 202.707031 126.160156 C 203.152344 126.34375 203.574219 126.570312 203.976562 126.839844 C 204.378906 127.109375 204.75 127.414062 205.089844 127.753906 C 205.433594 128.09375 205.738281 128.464844 206.003906 128.867188 C 206.273438 129.269531 206.5 129.691406 206.683594 130.136719 C 206.867188 130.585938 207.007812 131.042969 207.101562 131.515625 C 207.195312 131.992188 207.242188 132.46875 207.242188 132.949219 Z M 207.242188 132.949219 " fill-opacity="1" fill-rule="nonzero"/><path fill="#ffffff" d="M 231.742188 132.949219 C 231.742188 133.433594 231.695312 133.910156 231.601562 134.386719 C 231.507812 134.859375 231.367188 135.316406 231.183594 135.765625 C 231 136.210938 230.773438 136.632812 230.503906 137.035156 C 230.238281 137.4375 229.933594 137.808594 229.589844 138.148438 C 229.25 138.488281 228.878906 138.792969 228.476562 139.0625 C 228.074219 139.332031 227.652344 139.558594 227.207031 139.742188 C 226.761719 139.925781 226.300781 140.066406 225.828125 140.160156 C 225.355469 140.253906 224.875 140.300781 224.394531 140.300781 C 223.910156 140.300781 223.433594 140.253906 222.960938 140.160156 C 222.488281 140.066406 222.027344 139.925781 221.582031 139.742188 C 221.136719 139.558594 220.710938 139.332031 220.308594 139.0625 C 219.910156 138.792969 219.539062 138.488281 219.195312 138.148438 C 218.855469 137.808594 218.550781 137.4375 218.28125 137.035156 C 218.015625 136.632812 217.789062 136.210938 217.601562 135.765625 C 217.417969 135.316406 217.277344 134.859375 217.183594 134.386719 C 217.089844 133.910156 217.042969 133.433594 217.042969 132.949219 C 217.042969 132.46875 217.089844 131.992188 217.183594 131.515625 C 217.277344 131.042969 217.417969 130.585938 217.601562 130.136719 C 217.789062 129.691406 218.015625 129.269531 218.28125 128.867188 C 218.550781 128.464844 218.855469 128.09375 219.195312 127.753906 C 219.539062 127.414062 219.910156 127.109375 220.308594 126.839844 C 220.710938 126.570312 221.136719 126.34375 221.582031 126.160156 C 222.027344 125.976562 222.488281 125.835938 222.960938 125.742188 C 223.433594 125.648438 223.910156 125.601562 224.394531 125.601562 C 224.875 125.601562 225.355469 125.648438 225.828125 125.742188 C 226.300781 125.835938 226.761719 125.976562 227.207031 126.160156 C 227.652344 126.34375 228.074219 126.570312 228.476562 126.839844 C 228.878906 127.109375 229.25 127.414062 229.589844 127.753906 C 229.933594 128.09375 230.238281 128.464844 230.503906 128.867188 C 230.773438 129.269531 231 129.691406 231.183594 130.136719 C 231.367188 130.585938 231.507812 131.042969 231.601562 131.515625 C 231.695312 131.992188 231.742188 132.46875 231.742188 132.949219 Z M 231.742188 132.949219 " fill-opacity="1" fill-rule="nonzero"/><path fill="#ffffff" d="M 170.492188 118.25 C 170.492188 118.734375 170.445312 119.210938 170.351562 119.683594 C 170.257812 120.160156 170.117188 120.617188 169.933594 121.0625 C 169.75 121.507812 169.523438 121.933594 169.253906 122.335938 C 168.988281 122.734375 168.683594 123.105469 168.339844 123.449219 C 168 123.789062 167.628906 124.09375 167.226562 124.363281 C 166.824219 124.628906 166.402344 124.855469 165.957031 125.042969 C 165.511719 125.226562 165.050781 125.367188 164.578125 125.460938 C 164.105469 125.554688 163.625 125.601562 163.144531 125.601562 C 162.660156 125.601562 162.183594 125.554688 161.710938 125.460938 C 161.238281 125.367188 160.777344 125.226562 160.332031 125.042969 C 159.886719 124.855469 159.460938 124.628906 159.058594 124.363281 C 158.660156 124.09375 158.289062 123.789062 157.945312 123.449219 C 157.605469 123.105469 157.300781 122.734375 157.03125 122.335938 C 156.765625 121.933594 156.539062 121.507812 156.351562 121.0625 C 156.167969 120.617188 156.027344 120.160156 155.933594 119.683594 C 155.839844 119.210938 155.792969 118.734375 155.792969 118.25 C 155.792969 117.769531 155.839844 117.289062 155.933594 116.816406 C 156.027344 116.34375 156.167969 115.882812 156.351562 115.4375 C 156.539062 114.992188 156.765625 114.570312 157.03125 114.167969 C 157.300781 113.765625 157.605469 113.394531 157.945312 113.054688 C 158.289062 112.710938 158.660156 112.40625 159.058594 112.140625 C 159.460938 111.871094 159.886719 111.644531 160.332031 111.460938 C 160.777344 111.277344 161.238281 111.136719 161.710938 111.042969 C 162.183594 110.949219 162.660156 110.902344 163.144531 110.902344 C 163.625 110.902344 164.105469 110.949219 164.578125 111.042969 C 165.050781 111.136719 165.511719 111.277344 165.957031 111.460938 C 166.402344 111.644531 166.824219 111.871094 167.226562 112.140625 C 167.628906 112.40625 168 112.710938 168.339844 113.054688 C 168.683594 113.394531 168.988281 113.765625 169.253906 114.167969 C 169.523438 114.570312 169.75 114.992188 169.933594 115.4375 C 170.117188 115.882812 170.257812 116.34375 170.351562 116.816406 C 170.445312 117.289062 170.492188 117.769531 170.492188 118.25 Z M 170.492188 118.25 " fill-opacity="1" fill-rule="nonzero"/><path fill="#ffffff" d="M 194.992188 118.25 C 194.992188 118.734375 194.945312 119.210938 194.851562 119.683594 C 194.757812 120.160156 194.617188 120.617188 194.433594 121.0625 C 194.25 121.507812 194.023438 121.933594 193.753906 122.335938 C 193.488281 122.734375 193.183594 123.105469 192.839844 123.449219 C 192.5 123.789062 192.128906 124.09375 191.726562 124.363281 C 191.324219 124.628906 190.902344 124.855469 190.457031 125.042969 C 190.011719 125.226562 189.550781 125.367188 189.078125 125.460938 C 188.605469 125.554688 188.125 125.601562 187.644531 125.601562 C 187.160156 125.601562 186.683594 125.554688 186.210938 125.460938 C 185.738281 125.367188 185.277344 125.226562 184.832031 125.042969 C 184.386719 124.855469 183.960938 124.628906 183.558594 124.363281 C 183.160156 124.09375 182.789062 123.789062 182.445312 123.449219 C 182.105469 123.105469 181.800781 122.734375 181.53125 122.335938 C 181.265625 121.933594 181.039062 121.507812 180.851562 121.0625 C 180.667969 120.617188 180.527344 120.160156 180.433594 119.683594 C 180.339844 119.210938 180.292969 118.734375 180.292969 118.25 C 180.292969 117.769531 180.339844 117.289062 180.433594 116.816406 C 180.527344 116.34375 180.667969 115.882812 180.851562 115.4375 C 181.039062 114.992188 181.265625 114.570312 181.53125 114.167969 C 181.800781 113.765625 182.105469 113.394531 182.445312 113.054688 C 182.789062 112.710938 183.160156 112.40625 183.558594 112.140625 C 183.960938 111.871094 184.386719 111.644531 184.832031 111.460938 C 185.277344 111.277344 185.738281 111.136719 186.210938 111.042969 C 186.683594 110.949219 187.160156 110.902344 187.644531 110.902344 C 188.125 110.902344 188.605469 110.949219 189.078125 111.042969 C 189.550781 111.136719 190.011719 111.277344 190.457031 111.460938 C 190.902344 111.644531 191.324219 111.871094 191.726562 112.140625 C 192.128906 112.40625 192.5 112.710938 192.839844 113.054688 C 193.183594 113.394531 193.488281 113.765625 193.753906 114.167969 C 194.023438 114.570312 194.25 114.992188 194.433594 115.4375 C 194.617188 115.882812 194.757812 116.34375 194.851562 116.816406 C 194.945312 117.289062 194.992188 117.769531 194.992188 118.25 Z M 194.992188 118.25 " fill-opacity="1" fill-rule="nonzero"/><path fill="#ffffff" d="M 219.492188 118.25 C 219.492188 118.734375 219.445312 119.210938 219.351562 119.683594 C 219.257812 120.160156 219.117188 120.617188 218.933594 121.0625 C 218.75 121.507812 218.523438 121.933594 218.253906 122.335938 C 217.988281 122.734375 217.683594 123.105469 217.339844 123.449219 C 217 123.789062 216.628906 124.09375 216.226562 124.363281 C 215.824219 124.628906 215.402344 124.855469 214.957031 125.042969 C 214.511719 125.226562 214.050781 125.367188 213.578125 125.460938 C 213.105469 125.554688 212.625 125.601562 212.144531 125.601562 C 211.660156 125.601562 211.183594 125.554688 210.710938 125.460938 C 210.238281 125.367188 209.777344 125.226562 209.332031 125.042969 C 208.886719 124.855469 208.460938 124.628906 208.058594 124.363281 C 207.660156 124.09375 207.289062 123.789062 206.945312 123.449219 C 206.605469 123.105469 206.300781 122.734375 206.03125 122.335938 C 205.765625 121.933594 205.539062 121.507812 205.351562 121.0625 C 205.167969 120.617188 205.027344 120.160156 204.933594 119.683594 C 204.839844 119.210938 204.792969 118.734375 204.792969 118.25 C 204.792969 117.769531 204.839844 117.289062 204.933594 116.816406 C 205.027344 116.34375 205.167969 115.882812 205.351562 115.4375 C 205.539062 114.992188 205.765625 114.570312 206.03125 114.167969 C 206.300781 113.765625 206.605469 113.394531 206.945312 113.054688 C 207.289062 112.710938 207.660156 112.40625 208.058594 112.140625 C 208.460938 111.871094 208.886719 111.644531 209.332031 111.460938 C 209.777344 111.277344 210.238281 111.136719 210.710938 111.042969 C 211.183594 110.949219 211.660156 110.902344 212.144531 110.902344 C 212.625 110.902344 213.105469 110.949219 213.578125 111.042969 C 214.050781 111.136719 214.511719 111.277344 214.957031 111.460938 C 215.402344 111.644531 215.824219 111.871094 216.226562 112.140625 C 216.628906 112.40625 217 112.710938 217.339844 113.054688 C 217.683594 113.394531 217.988281 113.765625 218.253906 114.167969 C 218.523438 114.570312 218.75 114.992188 218.933594 115.4375 C 219.117188 115.882812 219.257812 116.34375 219.351562 116.816406 C 219.445312 117.289062 219.492188 117.769531 219.492188 118.25 Z M 219.492188 118.25 " fill-opacity="1" fill-rule="nonzero"/><g fill="#ffffff" fill-opacity="1"><g transform="translate(132.075868, 224.563946)"><g><path d="M 0.953125 -13.203125 L 5.6875 -13.203125 C 6.945312 -13.203125 7.976562 -12.863281 8.78125 -12.1875 C 9.582031 -11.507812 9.984375 -10.539062 9.984375 -9.28125 C 9.984375 -8.3125 9.738281 -7.5 9.25 -6.84375 C 8.769531 -6.1875 8.113281 -5.722656 7.28125 -5.453125 L 11.828125 0 L 8 0 L 3.96875 -5.21875 L 3.96875 0 L 0.953125 0 Z M 3.96875 -7.34375 L 4.3125 -7.34375 C 4.59375 -7.34375 4.828125 -7.347656 5.015625 -7.359375 C 5.210938 -7.367188 5.429688 -7.40625 5.671875 -7.46875 C 5.921875 -7.53125 6.117188 -7.617188 6.265625 -7.734375 C 6.421875 -7.859375 6.550781 -8.03125 6.65625 -8.25 C 6.757812 -8.476562 6.8125 -8.75 6.8125 -9.0625 C 6.8125 -9.382812 6.757812 -9.65625 6.65625 -9.875 C 6.550781 -10.101562 6.421875 -10.273438 6.265625 -10.390625 C 6.117188 -10.515625 5.921875 -10.609375 5.671875 -10.671875 C 5.429688 -10.734375 5.210938 -10.769531 5.015625 -10.78125 C 4.828125 -10.789062 4.59375 -10.796875 4.3125 -10.796875 L 3.96875 -10.796875 Z M 3.96875 -7.34375 "/></g></g></g><g fill="#ffffff" fill-opacity="1"><g transform="translate(153.273463, 224.563946)"><g><path d="M 3.96875 -13.203125 L 3.96875 0 L 0.953125 0 L 0.953125 -13.203125 Z M 3.96875 -13.203125 "/></g></g></g><g fill="#ffffff" fill-opacity="1"><g transform="translate(167.944631, 224.563946)"><g><path d="M 12.890625 -7.390625 L 12.890625 -4.53125 C 12.554688 -2.957031 11.8125 -1.769531 10.65625 -0.96875 C 9.5 -0.164062 8.210938 0.234375 6.796875 0.234375 C 5.015625 0.234375 3.5 -0.429688 2.25 -1.765625 C 1 -3.097656 0.375 -4.707031 0.375 -6.59375 C 0.375 -8.507812 0.984375 -10.128906 2.203125 -11.453125 C 3.429688 -12.773438 4.960938 -13.4375 6.796875 -13.4375 C 8.941406 -13.4375 10.640625 -12.6875 11.890625 -11.1875 L 9.921875 -9.03125 C 9.210938 -10.15625 8.226562 -10.71875 6.96875 -10.71875 C 6.039062 -10.71875 5.25 -10.3125 4.59375 -9.5 C 3.9375 -8.695312 3.609375 -7.726562 3.609375 -6.59375 C 3.609375 -5.46875 3.9375 -4.507812 4.59375 -3.71875 C 5.25 -2.925781 6.039062 -2.53125 6.96875 -2.53125 C 7.738281 -2.53125 8.410156 -2.757812 8.984375 -3.21875 C 9.554688 -3.6875 9.84375 -4.304688 9.84375 -5.078125 L 6.796875 -5.078125 L 6.796875 -7.390625 Z M 12.890625 -7.390625 "/></g></g></g><g fill="#ffffff" fill-opacity="1"><g transform="translate(190.9498, 224.563946)"><g><path d="M 3.96875 -5.296875 L 3.96875 0 L 0.953125 0 L 0.953125 -13.203125 L 3.96875 -13.203125 L 3.96875 -7.9375 L 8.21875 -7.9375 L 8.21875 -13.203125 L 11.234375 -13.203125 L 11.234375 0 L 8.21875 0 L 8.21875 -5.296875 Z M 3.96875 -5.296875 "/></g></g></g><g fill="#ffffff" fill-opacity="1"><g transform="translate(212.883214, 224.563946)"><g><path d="M 0.125 -10.5625 L 0.125 -13.203125 L 9.40625 -13.203125 L 9.40625 -10.5625 L 6.265625 -10.5625 L 6.265625 0 L 3.265625 0 L 3.265625 -10.5625 Z M 0.125 -10.5625 "/></g></g></g><g fill="#ffffff" fill-opacity="1"><g transform="translate(232.161266, 224.563946)"><g><path d="M 5.828125 -13.4375 C 6.535156 -13.4375 7.226562 -13.332031 7.90625 -13.125 C 8.59375 -12.914062 9.101562 -12.710938 9.4375 -12.515625 L 9.921875 -12.1875 L 8.703125 -9.796875 C 8.609375 -9.859375 8.472656 -9.9375 8.296875 -10.03125 C 8.128906 -10.132812 7.8125 -10.269531 7.34375 -10.4375 C 6.875 -10.613281 6.4375 -10.703125 6.03125 -10.703125 C 5.53125 -10.703125 5.144531 -10.59375 4.875 -10.375 C 4.601562 -10.164062 4.46875 -9.878906 4.46875 -9.515625 C 4.46875 -9.335938 4.53125 -9.171875 4.65625 -9.015625 C 4.78125 -8.859375 5 -8.691406 5.3125 -8.515625 C 5.625 -8.335938 5.894531 -8.195312 6.125 -8.09375 C 6.363281 -7.988281 6.726562 -7.828125 7.21875 -7.609375 C 8.070312 -7.253906 8.796875 -6.765625 9.390625 -6.140625 C 9.992188 -5.515625 10.296875 -4.804688 10.296875 -4.015625 C 10.296875 -3.253906 10.160156 -2.59375 9.890625 -2.03125 C 9.617188 -1.46875 9.242188 -1.023438 8.765625 -0.703125 C 8.296875 -0.378906 7.773438 -0.144531 7.203125 0 C 6.628906 0.15625 6.003906 0.234375 5.328125 0.234375 C 4.753906 0.234375 4.1875 0.175781 3.625 0.0625 C 3.070312 -0.0507812 2.609375 -0.195312 2.234375 -0.375 C 1.867188 -0.550781 1.535156 -0.722656 1.234375 -0.890625 C 0.929688 -1.066406 0.710938 -1.210938 0.578125 -1.328125 L 0.375 -1.5 L 1.875 -4.03125 C 2 -3.925781 2.171875 -3.789062 2.390625 -3.625 C 2.617188 -3.457031 3.019531 -3.234375 3.59375 -2.953125 C 4.164062 -2.679688 4.671875 -2.546875 5.109375 -2.546875 C 6.378906 -2.546875 7.015625 -2.976562 7.015625 -3.84375 C 7.015625 -4.019531 6.96875 -4.1875 6.875 -4.34375 C 6.78125 -4.5 6.617188 -4.65625 6.390625 -4.8125 C 6.160156 -4.96875 5.957031 -5.085938 5.78125 -5.171875 C 5.601562 -5.265625 5.3125 -5.40625 4.90625 -5.59375 C 4.507812 -5.78125 4.21875 -5.921875 4.03125 -6.015625 C 3.226562 -6.410156 2.609375 -6.90625 2.171875 -7.5 C 1.734375 -8.09375 1.515625 -8.726562 1.515625 -9.40625 C 1.515625 -10.59375 1.953125 -11.5625 2.828125 -12.3125 C 3.703125 -13.0625 4.703125 -13.4375 5.828125 -13.4375 Z M 5.828125 -13.4375 "/></g></g></g><g fill="#ffffff" fill-opacity="1"><g transform="translate(75.265692, 274.963722)"><g><path d="M 0.953125 -13.203125 L 5.6875 -13.203125 C 6.945312 -13.203125 7.976562 -12.863281 8.78125 -12.1875 C 9.582031 -11.507812 9.984375 -10.539062 9.984375 -9.28125 C 9.984375 -8.3125 9.738281 -7.5 9.25 -6.84375 C 8.769531 -6.1875 8.113281 -5.722656 7.28125 -5.453125 L 11.828125 0 L 8 0 L 3.96875 -5.21875 L 3.96875 0 L 0.953125 0 Z M 3.96875 -7.34375 L 4.3125 -7.34375 C 4.59375 -7.34375 4.828125 -7.347656 5.015625 -7.359375 C 5.210938 -7.367188 5.429688 -7.40625 5.671875 -7.46875 C 5.921875 -7.53125 6.117188 -7.617188 6.265625 -7.734375 C 6.421875 -7.859375 6.550781 -8.03125 6.65625 -8.25 C 6.757812 -8.476562 6.8125 -8.75 6.8125 -9.0625 C 6.8125 -9.382812 6.757812 -9.65625 6.65625 -9.875 C 6.550781 -10.101562 6.421875 -10.273438 6.265625 -10.390625 C 6.117188 -10.515625 5.921875 -10.609375 5.671875 -10.671875 C 5.429688 -10.734375 5.210938 -10.769531 5.015625 -10.78125 C 4.828125 -10.789062 4.59375 -10.796875 4.3125 -10.796875 L 3.96875 -10.796875 Z M 3.96875 -7.34375 "/></g></g></g><g fill="#ffffff" fill-opacity="1"><g transform="translate(94.047202, 274.963722)"><g><path d="M 8.515625 -13.203125 L 8.515625 -10.5625 L 3.96875 -10.5625 L 3.96875 -7.9375 L 8.3125 -7.9375 L 8.3125 -5.296875 L 3.96875 -5.296875 L 3.96875 -2.640625 L 8.515625 -2.640625 L 8.515625 0 L 0.953125 0 L 0.953125 -13.203125 Z M 8.515625 -13.203125 "/></g></g></g><g fill="#ffffff" fill-opacity="1"><g transform="translate(110.653236, 274.963722)"><g><path d="M 5.828125 -13.4375 C 6.535156 -13.4375 7.226562 -13.332031 7.90625 -13.125 C 8.59375 -12.914062 9.101562 -12.710938 9.4375 -12.515625 L 9.921875 -12.1875 L 8.703125 -9.796875 C 8.609375 -9.859375 8.472656 -9.9375 8.296875 -10.03125 C 8.128906 -10.132812 7.8125 -10.269531 7.34375 -10.4375 C 6.875 -10.613281 6.4375 -10.703125 6.03125 -10.703125 C 5.53125 -10.703125 5.144531 -10.59375 4.875 -10.375 C 4.601562 -10.164062 4.46875 -9.878906 4.46875 -9.515625 C 4.46875 -9.335938 4.53125 -9.171875 4.65625 -9.015625 C 4.78125 -8.859375 5 -8.691406 5.3125 -8.515625 C 5.625 -8.335938 5.894531 -8.195312 6.125 -8.09375 C 6.363281 -7.988281 6.726562 -7.828125 7.21875 -7.609375 C 8.070312 -7.253906 8.796875 -6.765625 9.390625 -6.140625 C 9.992188 -5.515625 10.296875 -4.804688 10.296875 -4.015625 C 10.296875 -3.253906 10.160156 -2.59375 9.890625 -2.03125 C 9.617188 -1.46875 9.242188 -1.023438 8.765625 -0.703125 C 8.296875 -0.378906 7.773438 -0.144531 7.203125 0 C 6.628906 0.15625 6.003906 0.234375 5.328125 0.234375 C 4.753906 0.234375 4.1875 0.175781 3.625 0.0625 C 3.070312 -0.0507812 2.609375 -0.195312 2.234375 -0.375 C 1.867188 -0.550781 1.535156 -0.722656 1.234375 -0.890625 C 0.929688 -1.066406 0.710938 -1.210938 0.578125 -1.328125 L 0.375 -1.5 L 1.875 -4.03125 C 2 -3.925781 2.171875 -3.789062 2.390625 -3.625 C 2.617188 -3.457031 3.019531 -3.234375 3.59375 -2.953125 C 4.164062 -2.679688 4.671875 -2.546875 5.109375 -2.546875 C 6.378906 -2.546875 7.015625 -2.976562 7.015625 -3.84375 C 7.015625 -4.019531 6.96875 -4.1875 6.875 -4.34375 C 6.78125 -4.5 6.617188 -4.65625 6.390625 -4.8125 C 6.160156 -4.96875 5.957031 -5.085938 5.78125 -5.171875 C 5.601562 -5.265625 5.3125 -5.40625 4.90625 -5.59375 C 4.507812 -5.78125 4.21875 -5.921875 4.03125 -6.015625 C 3.226562 -6.410156 2.609375 -6.90625 2.171875 -7.5 C 1.734375 -8.09375 1.515625 -8.726562 1.515625 -9.40625 C 1.515625 -10.59375 1.953125 -11.5625 2.828125 -12.3125 C 3.703125 -13.0625 4.703125 -13.4375 5.828125 -13.4375 Z M 5.828125 -13.4375 "/></g></g></g><g fill="#ffffff" fill-opacity="1"><g transform="translate(128.730923, 274.963722)"><g><path d="M 0.953125 -13.203125 L 5.78125 -13.203125 C 7.125 -13.203125 8.207031 -12.851562 9.03125 -12.15625 C 9.863281 -11.46875 10.28125 -10.460938 10.28125 -9.140625 C 10.28125 -7.816406 9.859375 -6.773438 9.015625 -6.015625 C 8.179688 -5.265625 7.101562 -4.890625 5.78125 -4.890625 L 3.96875 -4.890625 L 3.96875 0 L 0.953125 0 Z M 3.96875 -7.296875 L 4.8125 -7.296875 C 5.488281 -7.296875 6.039062 -7.429688 6.46875 -7.703125 C 6.90625 -7.972656 7.125 -8.421875 7.125 -9.046875 C 7.125 -9.671875 6.90625 -10.117188 6.46875 -10.390625 C 6.039062 -10.660156 5.488281 -10.796875 4.8125 -10.796875 L 3.96875 -10.796875 Z M 3.96875 -7.296875 "/></g></g></g><g fill="#ffffff" fill-opacity="1"><g transform="translate(146.712629, 274.963722)"><g><path d="M 0.375 -6.609375 C 0.375 -8.515625 1.019531 -10.128906 2.3125 -11.453125 C 3.613281 -12.773438 5.1875 -13.4375 7.03125 -13.4375 C 8.875 -13.4375 10.4375 -12.773438 11.71875 -11.453125 C 13.007812 -10.140625 13.65625 -8.523438 13.65625 -6.609375 C 13.65625 -4.679688 13.019531 -3.054688 11.75 -1.734375 C 10.488281 -0.421875 8.914062 0.234375 7.03125 0.234375 C 5.09375 0.234375 3.5 -0.414062 2.25 -1.71875 C 1 -3.03125 0.375 -4.660156 0.375 -6.609375 Z M 3.609375 -6.609375 C 3.609375 -5.910156 3.710938 -5.273438 3.921875 -4.703125 C 4.140625 -4.140625 4.515625 -3.660156 5.046875 -3.265625 C 5.585938 -2.867188 6.25 -2.671875 7.03125 -2.671875 C 8.144531 -2.671875 8.988281 -3.050781 9.5625 -3.8125 C 10.132812 -4.582031 10.421875 -5.515625 10.421875 -6.609375 C 10.421875 -7.679688 10.128906 -8.601562 9.546875 -9.375 C 8.960938 -10.15625 8.125 -10.546875 7.03125 -10.546875 C 5.9375 -10.546875 5.09375 -10.15625 4.5 -9.375 C 3.90625 -8.601562 3.609375 -7.679688 3.609375 -6.609375 Z M 3.609375 -6.609375 "/></g></g></g><g fill="#ffffff" fill-opacity="1"><g transform="translate(168.069517, 274.963722)"><g><path d="M 3.96875 -8.1875 L 3.96875 0 L 0.953125 0 L 0.953125 -13.203125 L 3.96875 -13.203125 L 9.21875 -5.015625 L 9.25 -5.015625 L 9.25 -13.203125 L 12.25 -13.203125 L 12.25 0 L 9.25 0 L 4 -8.1875 Z M 3.96875 -8.1875 "/></g></g></g><g fill="#ffffff" fill-opacity="1"><g transform="translate(188.610602, 274.963722)"><g><path d="M 5.828125 -13.4375 C 6.535156 -13.4375 7.226562 -13.332031 7.90625 -13.125 C 8.59375 -12.914062 9.101562 -12.710938 9.4375 -12.515625 L 9.921875 -12.1875 L 8.703125 -9.796875 C 8.609375 -9.859375 8.472656 -9.9375 8.296875 -10.03125 C 8.128906 -10.132812 7.8125 -10.269531 7.34375 -10.4375 C 6.875 -10.613281 6.4375 -10.703125 6.03125 -10.703125 C 5.53125 -10.703125 5.144531 -10.59375 4.875 -10.375 C 4.601562 -10.164062 4.46875 -9.878906 4.46875 -9.515625 C 4.46875 -9.335938 4.53125 -9.171875 4.65625 -9.015625 C 4.78125 -8.859375 5 -8.691406 5.3125 -8.515625 C 5.625 -8.335938 5.894531 -8.195312 6.125 -8.09375 C 6.363281 -7.988281 6.726562 -7.828125 7.21875 -7.609375 C 8.070312 -7.253906 8.796875 -6.765625 9.390625 -6.140625 C 9.992188 -5.515625 10.296875 -4.804688 10.296875 -4.015625 C 10.296875 -3.253906 10.160156 -2.59375 9.890625 -2.03125 C 9.617188 -1.46875 9.242188 -1.023438 8.765625 -0.703125 C 8.296875 -0.378906 7.773438 -0.144531 7.203125 0 C 6.628906 0.15625 6.003906 0.234375 5.328125 0.234375 C 4.753906 0.234375 4.1875 0.175781 3.625 0.0625 C 3.070312 -0.0507812 2.609375 -0.195312 2.234375 -0.375 C 1.867188 -0.550781 1.535156 -0.722656 1.234375 -0.890625 C 0.929688 -1.066406 0.710938 -1.210938 0.578125 -1.328125 L 0.375 -1.5 L 1.875 -4.03125 C 2 -3.925781 2.171875 -3.789062 2.390625 -3.625 C 2.617188 -3.457031 3.019531 -3.234375 3.59375 -2.953125 C 4.164062 -2.679688 4.671875 -2.546875 5.109375 -2.546875 C 6.378906 -2.546875 7.015625 -2.976562 7.015625 -3.84375 C 7.015625 -4.019531 6.96875 -4.1875 6.875 -4.34375 C 6.78125 -4.5 6.617188 -4.65625 6.390625 -4.8125 C 6.160156 -4.96875 5.957031 -5.085938 5.78125 -5.171875 C 5.601562 -5.265625 5.3125 -5.40625 4.90625 -5.59375 C 4.507812 -5.78125 4.21875 -5.921875 4.03125 -6.015625 C 3.226562 -6.410156 2.609375 -6.90625 2.171875 -7.5 C 1.734375 -8.09375 1.515625 -8.726562 1.515625 -9.40625 C 1.515625 -10.59375 1.953125 -11.5625 2.828125 -12.3125 C 3.703125 -13.0625 4.703125 -13.4375 5.828125 -13.4375 Z M 5.828125 -13.4375 "/></g></g></g><g fill="#ffffff" fill-opacity="1"><g transform="translate(206.688284, 274.963722)"><g><path d="M 3.96875 -13.203125 L 3.96875 0 L 0.953125 0 L 0.953125 -13.203125 Z M 3.96875 -13.203125 "/></g></g></g><g fill="#ffffff" fill-opacity="1"><g transform="translate(218.943372, 274.963722)"><g><path d="M 0.953125 -13.203125 L 5.0625 -13.203125 C 6.289062 -13.203125 7.273438 -12.9375 8.015625 -12.40625 C 8.753906 -11.875 9.125 -11.019531 9.125 -9.84375 C 9.125 -8.519531 8.570312 -7.578125 7.46875 -7.015625 C 9.34375 -6.679688 10.28125 -5.570312 10.28125 -3.6875 C 10.28125 -2.570312 9.894531 -1.675781 9.125 -1 C 8.363281 -0.332031 7.3125 0 5.96875 0 L 0.953125 0 Z M 3.96875 -8.03125 L 4.203125 -8.03125 C 4.878906 -8.03125 5.378906 -8.144531 5.703125 -8.375 C 6.035156 -8.613281 6.203125 -9 6.203125 -9.53125 C 6.203125 -10.425781 5.535156 -10.875 4.203125 -10.875 L 3.96875 -10.875 Z M 3.96875 -2.3125 L 4.90625 -2.3125 C 6.382812 -2.3125 7.125 -2.804688 7.125 -3.796875 C 7.125 -4.378906 6.9375 -4.796875 6.5625 -5.046875 C 6.195312 -5.304688 5.644531 -5.4375 4.90625 -5.4375 L 3.96875 -5.4375 Z M 3.96875 -2.3125 "/></g></g></g><g fill="#ffffff" fill-opacity="1"><g transform="translate(236.925082, 274.963722)"><g><path d="M 3.96875 -13.203125 L 3.96875 0 L 0.953125 0 L 0.953125 -13.203125 Z M 3.96875 -13.203125 "/></g></g></g><g fill="#ffffff" fill-opacity="1"><g transform="translate(249.18017, 274.963722)"><g><path d="M 3.96875 -13.203125 L 3.96875 -2.640625 L 8.515625 -2.640625 L 8.515625 0 L 0.953125 0 L 0.953125 -13.203125 Z M 3.96875 -13.203125 "/></g></g></g><g fill="#ffffff" fill-opacity="1"><g transform="translate(265.546273, 274.963722)"><g><path d="M 3.96875 -13.203125 L 3.96875 0 L 0.953125 0 L 0.953125 -13.203125 Z M 3.96875 -13.203125 "/></g></g></g><g fill="#ffffff" fill-opacity="1"><g transform="translate(277.801361, 274.963722)"><g><path d="M 0.125 -10.5625 L 0.125 -13.203125 L 9.40625 -13.203125 L 9.40625 -10.5625 L 6.265625 -10.5625 L 6.265625 0 L 3.265625 0 L 3.265625 -10.5625 Z M 0.125 -10.5625 "/></g></g></g><g fill="#ffffff" fill-opacity="1"><g transform="translate(294.663336, 274.963722)"><g><path d="M -0.484375 -13.203125 L 3.140625 -13.203125 L 5.890625 -8.96875 L 8.640625 -13.203125 L 12.25 -13.203125 L 7.390625 -5.921875 L 7.390625 0 L 4.390625 0 L 4.390625 -5.921875 Z M -0.484375 -13.203125 "/></g></g></g><g fill="#ffffff" fill-opacity="1"><g transform="translate(124.797742, 249.663836)"><g><path d="M 0.953125 -13.203125 L 5.0625 -13.203125 C 6.289062 -13.203125 7.273438 -12.9375 8.015625 -12.40625 C 8.753906 -11.875 9.125 -11.019531 9.125 -9.84375 C 9.125 -8.519531 8.570312 -7.578125 7.46875 -7.015625 C 9.34375 -6.679688 10.28125 -5.570312 10.28125 -3.6875 C 10.28125 -2.570312 9.894531 -1.675781 9.125 -1 C 8.363281 -0.332031 7.3125 0 5.96875 0 L 0.953125 0 Z M 3.96875 -8.03125 L 4.203125 -8.03125 C 4.878906 -8.03125 5.378906 -8.144531 5.703125 -8.375 C 6.035156 -8.613281 6.203125 -9 6.203125 -9.53125 C 6.203125 -10.425781 5.535156 -10.875 4.203125 -10.875 L 3.96875 -10.875 Z M 3.96875 -2.3125 L 4.90625 -2.3125 C 6.382812 -2.3125 7.125 -2.804688 7.125 -3.796875 C 7.125 -4.378906 6.9375 -4.796875 6.5625 -5.046875 C 6.195312 -5.304688 5.644531 -5.4375 4.90625 -5.4375 L 3.96875 -5.4375 Z M 3.96875 -2.3125 "/></g></g></g><g fill="#ffffff" fill-opacity="1"><g transform="translate(143.131459, 249.663836)"><g><path d="M 7.65625 -13.203125 L 12.984375 0 L 9.765625 0 L 8.78125 -2.640625 L 3.765625 -2.640625 L 2.78125 0 L -0.453125 0 L 4.875 -13.203125 Z M 7.765625 -5.28125 L 6.28125 -9.125 L 6.25 -9.125 L 4.78125 -5.28125 Z M 7.765625 -5.28125 "/></g></g></g><g fill="#ffffff" fill-opacity="1"><g transform="translate(163.352718, 249.663836)"><g><path d="M 3.96875 -13.203125 L 3.96875 -2.640625 L 8.515625 -2.640625 L 8.515625 0 L 0.953125 0 L 0.953125 -13.203125 Z M 3.96875 -13.203125 "/></g></g></g><g fill="#ffffff" fill-opacity="1"><g transform="translate(180.070825, 249.663836)"><g><path d="M 7.65625 -13.203125 L 12.984375 0 L 9.765625 0 L 8.78125 -2.640625 L 3.765625 -2.640625 L 2.78125 0 L -0.453125 0 L 4.875 -13.203125 Z M 7.765625 -5.28125 L 6.28125 -9.125 L 6.25 -9.125 L 4.78125 -5.28125 Z M 7.765625 -5.28125 "/></g></g></g><g fill="#ffffff" fill-opacity="1"><g transform="translate(200.292087, 249.663836)"><g><path d="M 3.96875 -8.1875 L 3.96875 0 L 0.953125 0 L 0.953125 -13.203125 L 3.96875 -13.203125 L 9.21875 -5.015625 L 9.25 -5.015625 L 9.25 -13.203125 L 12.25 -13.203125 L 12.25 0 L 9.25 0 L 4 -8.1875 Z M 3.96875 -8.1875 "/></g></g></g><g fill="#ffffff" fill-opacity="1"><g transform="translate(221.185187, 249.663836)"><g><path d="M 7.984375 -2.71875 C 8.441406 -2.71875 8.882812 -2.785156 9.3125 -2.921875 C 9.75 -3.066406 10.066406 -3.203125 10.265625 -3.328125 L 10.578125 -3.53125 L 11.859375 -0.96875 C 11.816406 -0.9375 11.753906 -0.894531 11.671875 -0.84375 C 11.597656 -0.789062 11.425781 -0.691406 11.15625 -0.546875 C 10.882812 -0.410156 10.59375 -0.285156 10.28125 -0.171875 C 9.976562 -0.0664062 9.570312 0.0234375 9.0625 0.109375 C 8.5625 0.191406 8.046875 0.234375 7.515625 0.234375 C 6.296875 0.234375 5.132812 -0.0625 4.03125 -0.65625 C 2.9375 -1.257812 2.050781 -2.085938 1.375 -3.140625 C 0.707031 -4.203125 0.375 -5.347656 0.375 -6.578125 C 0.375 -7.503906 0.566406 -8.394531 0.953125 -9.25 C 1.347656 -10.101562 1.875 -10.832031 2.53125 -11.4375 C 3.1875 -12.050781 3.953125 -12.535156 4.828125 -12.890625 C 5.703125 -13.253906 6.597656 -13.4375 7.515625 -13.4375 C 8.367188 -13.4375 9.15625 -13.332031 9.875 -13.125 C 10.59375 -12.925781 11.101562 -12.726562 11.40625 -12.53125 L 11.859375 -12.21875 L 10.578125 -9.65625 C 10.503906 -9.726562 10.390625 -9.804688 10.234375 -9.890625 C 10.085938 -9.984375 9.789062 -10.101562 9.34375 -10.25 C 8.894531 -10.40625 8.441406 -10.484375 7.984375 -10.484375 C 7.253906 -10.484375 6.601562 -10.363281 6.03125 -10.125 C 5.457031 -9.894531 5 -9.585938 4.65625 -9.203125 C 4.320312 -8.816406 4.066406 -8.398438 3.890625 -7.953125 C 3.710938 -7.515625 3.625 -7.066406 3.625 -6.609375 C 3.625 -5.609375 4 -4.707031 4.75 -3.90625 C 5.507812 -3.113281 6.585938 -2.71875 7.984375 -2.71875 Z M 7.984375 -2.71875 "/></g></g></g><g fill="#ffffff" fill-opacity="1"><g transform="translate(240.910577, 249.663836)"><g><path d="M 8.515625 -13.203125 L 8.515625 -10.5625 L 3.96875 -10.5625 L 3.96875 -7.9375 L 8.3125 -7.9375 L 8.3125 -5.296875 L 3.96875 -5.296875 L 3.96875 -2.640625 L 8.515625 -2.640625 L 8.515625 0 L 0.953125 0 L 0.953125 -13.203125 Z M 8.515625 -13.203125 "/></g></g></g><g fill="#074200" fill-opacity="1"><g transform="translate(41.113336, 307.948602)"><g><path d="M 0.90625 -12.375 L 5.421875 -12.375 C 6.679688 -12.375 7.695312 -12.046875 8.46875 -11.390625 C 9.25 -10.742188 9.640625 -9.800781 9.640625 -8.5625 C 9.640625 -7.320312 9.242188 -6.347656 8.453125 -5.640625 C 7.671875 -4.941406 6.660156 -4.59375 5.421875 -4.59375 L 3.71875 -4.59375 L 3.71875 0 L 0.90625 0 Z M 3.71875 -6.84375 L 4.515625 -6.84375 C 5.140625 -6.84375 5.65625 -6.96875 6.0625 -7.21875 C 6.46875 -7.476562 6.671875 -7.894531 6.671875 -8.46875 C 6.671875 -9.0625 6.46875 -9.484375 6.0625 -9.734375 C 5.65625 -9.992188 5.140625 -10.125 4.515625 -10.125 L 3.71875 -10.125 Z M 3.71875 -6.84375 "/></g></g></g><g fill="#074200" fill-opacity="1"><g transform="translate(53.473424, 307.948602)"><g><path d="M 0.34375 -6.1875 C 0.34375 -7.976562 0.953125 -9.492188 2.171875 -10.734375 C 3.390625 -11.972656 4.859375 -12.59375 6.578125 -12.59375 C 8.316406 -12.59375 9.789062 -11.972656 11 -10.734375 C 12.207031 -9.503906 12.8125 -7.988281 12.8125 -6.1875 C 12.8125 -4.382812 12.210938 -2.863281 11.015625 -1.625 C 9.828125 -0.394531 8.347656 0.21875 6.578125 0.21875 C 4.773438 0.21875 3.285156 -0.390625 2.109375 -1.609375 C 0.929688 -2.835938 0.34375 -4.363281 0.34375 -6.1875 Z M 3.390625 -6.1875 C 3.390625 -5.539062 3.488281 -4.945312 3.6875 -4.40625 C 3.882812 -3.875 4.234375 -3.421875 4.734375 -3.046875 C 5.234375 -2.679688 5.847656 -2.5 6.578125 -2.5 C 7.628906 -2.5 8.421875 -2.859375 8.953125 -3.578125 C 9.492188 -4.304688 9.765625 -5.175781 9.765625 -6.1875 C 9.765625 -7.195312 9.488281 -8.066406 8.9375 -8.796875 C 8.394531 -9.523438 7.609375 -9.890625 6.578125 -9.890625 C 5.566406 -9.890625 4.78125 -9.523438 4.21875 -8.796875 C 3.664062 -8.066406 3.390625 -7.195312 3.390625 -6.1875 Z M 3.390625 -6.1875 "/></g></g></g><g fill="#074200" fill-opacity="1"><g transform="translate(68.998501, 307.948602)"><g><path d="M 0.90625 -12.375 L 5.421875 -12.375 C 6.679688 -12.375 7.695312 -12.046875 8.46875 -11.390625 C 9.25 -10.742188 9.640625 -9.800781 9.640625 -8.5625 C 9.640625 -7.320312 9.242188 -6.347656 8.453125 -5.640625 C 7.671875 -4.941406 6.660156 -4.59375 5.421875 -4.59375 L 3.71875 -4.59375 L 3.71875 0 L 0.90625 0 Z M 3.71875 -6.84375 L 4.515625 -6.84375 C 5.140625 -6.84375 5.65625 -6.96875 6.0625 -7.21875 C 6.46875 -7.476562 6.671875 -7.894531 6.671875 -8.46875 C 6.671875 -9.0625 6.46875 -9.484375 6.0625 -9.734375 C 5.65625 -9.992188 5.140625 -10.125 4.515625 -10.125 L 3.71875 -10.125 Z M 3.71875 -6.84375 "/></g></g></g><g fill="#074200" fill-opacity="1"><g transform="translate(81.358588, 307.948602)"><g><path d="M 10.40625 -12.375 L 10.40625 -4.390625 C 10.40625 -2.867188 9.992188 -1.71875 9.171875 -0.9375 C 8.359375 -0.164062 7.160156 0.21875 5.578125 0.21875 C 3.992188 0.21875 2.789062 -0.164062 1.96875 -0.9375 C 1.15625 -1.71875 0.75 -2.867188 0.75 -4.390625 L 0.75 -12.375 L 3.5625 -12.375 L 3.5625 -5.21875 C 3.5625 -4.21875 3.71875 -3.519531 4.03125 -3.125 C 4.351562 -2.738281 4.867188 -2.546875 5.578125 -2.546875 C 6.285156 -2.546875 6.796875 -2.738281 7.109375 -3.125 C 7.429688 -3.519531 7.59375 -4.21875 7.59375 -5.21875 L 7.59375 -12.375 Z M 10.40625 -12.375 "/></g></g></g><g fill="#074200" fill-opacity="1"><g transform="translate(94.888674, 307.948602)"><g><path d="M 3.71875 -12.375 L 3.71875 -2.46875 L 7.984375 -2.46875 L 7.984375 0 L 0.90625 0 L 0.90625 -12.375 Z M 3.71875 -12.375 "/></g></g></g><g fill="#074200" fill-opacity="1"><g transform="translate(105.733758, 307.948602)"><g><path d="M 7.1875 -12.375 L 12.1875 0 L 9.15625 0 L 8.234375 -2.46875 L 3.53125 -2.46875 L 2.609375 0 L -0.421875 0 L 4.578125 -12.375 Z M 7.28125 -4.953125 L 5.890625 -8.546875 L 5.859375 -8.546875 L 4.484375 -4.953125 Z M 7.28125 -4.953125 "/></g></g></g><g fill="#074200" fill-opacity="1"><g transform="translate(119.863846, 307.948602)"><g><path d="M 0.125 -9.90625 L 0.125 -12.375 L 8.8125 -12.375 L 8.8125 -9.90625 L 5.875 -9.90625 L 5.875 0 L 3.0625 0 L 3.0625 -9.90625 Z M 0.125 -9.90625 "/></g></g></g><g fill="#074200" fill-opacity="1"><g transform="translate(131.173926, 307.948602)"><g><path d="M 3.71875 -12.375 L 3.71875 0 L 0.90625 0 L 0.90625 -12.375 Z M 3.71875 -12.375 "/></g></g></g><g fill="#074200" fill-opacity="1"><g transform="translate(138.164011, 307.948602)"><g><path d="M 0.34375 -6.1875 C 0.34375 -7.976562 0.953125 -9.492188 2.171875 -10.734375 C 3.390625 -11.972656 4.859375 -12.59375 6.578125 -12.59375 C 8.316406 -12.59375 9.789062 -11.972656 11 -10.734375 C 12.207031 -9.503906 12.8125 -7.988281 12.8125 -6.1875 C 12.8125 -4.382812 12.210938 -2.863281 11.015625 -1.625 C 9.828125 -0.394531 8.347656 0.21875 6.578125 0.21875 C 4.773438 0.21875 3.285156 -0.390625 2.109375 -1.609375 C 0.929688 -2.835938 0.34375 -4.363281 0.34375 -6.1875 Z M 3.390625 -6.1875 C 3.390625 -5.539062 3.488281 -4.945312 3.6875 -4.40625 C 3.882812 -3.875 4.234375 -3.421875 4.734375 -3.046875 C 5.234375 -2.679688 5.847656 -2.5 6.578125 -2.5 C 7.628906 -2.5 8.421875 -2.859375 8.953125 -3.578125 C 9.492188 -4.304688 9.765625 -5.175781 9.765625 -6.1875 C 9.765625 -7.195312 9.488281 -8.066406 8.9375 -8.796875 C 8.394531 -9.523438 7.609375 -9.890625 6.578125 -9.890625 C 5.566406 -9.890625 4.78125 -9.523438 4.21875 -8.796875 C 3.664062 -8.066406 3.390625 -7.195312 3.390625 -6.1875 Z M 3.390625 -6.1875 "/></g></g></g><g fill="#074200" fill-opacity="1"><g transform="translate(153.689088, 307.948602)"><g><path d="M 3.71875 -7.6875 L 3.71875 0 L 0.90625 0 L 0.90625 -12.375 L 3.71875 -12.375 L 8.640625 -4.6875 L 8.671875 -4.6875 L 8.671875 -12.375 L 11.484375 -12.375 L 11.484375 0 L 8.671875 0 L 3.75 -7.6875 Z M 3.71875 -7.6875 "/></g></g></g><g fill="#074200" fill-opacity="1"><g transform="translate(168.449174, 307.948602)"><g/></g></g><g fill="#074200" fill-opacity="1"><g transform="translate(174.914261, 307.948602)"><g><path d="M 0.90625 -12.375 L 5.421875 -12.375 C 6.679688 -12.375 7.695312 -12.046875 8.46875 -11.390625 C 9.25 -10.742188 9.640625 -9.800781 9.640625 -8.5625 C 9.640625 -7.320312 9.242188 -6.347656 8.453125 -5.640625 C 7.671875 -4.941406 6.660156 -4.59375 5.421875 -4.59375 L 3.71875 -4.59375 L 3.71875 0 L 0.90625 0 Z M 3.71875 -6.84375 L 4.515625 -6.84375 C 5.140625 -6.84375 5.65625 -6.96875 6.0625 -7.21875 C 6.46875 -7.476562 6.671875 -7.894531 6.671875 -8.46875 C 6.671875 -9.0625 6.46875 -9.484375 6.0625 -9.734375 C 5.65625 -9.992188 5.140625 -10.125 4.515625 -10.125 L 3.71875 -10.125 Z M 3.71875 -6.84375 "/></g></g></g><g fill="#074200" fill-opacity="1"><g transform="translate(187.274349, 307.948602)"><g><path d="M 0.90625 -12.375 L 5.328125 -12.375 C 6.515625 -12.375 7.484375 -12.054688 8.234375 -11.421875 C 8.984375 -10.785156 9.359375 -9.878906 9.359375 -8.703125 C 9.359375 -7.785156 9.128906 -7.019531 8.671875 -6.40625 C 8.222656 -5.789062 7.609375 -5.359375 6.828125 -5.109375 L 11.078125 0 L 7.5 0 L 3.71875 -4.890625 L 3.71875 0 L 0.90625 0 Z M 3.71875 -6.890625 L 4.046875 -6.890625 C 4.304688 -6.890625 4.523438 -6.894531 4.703125 -6.90625 C 4.890625 -6.914062 5.097656 -6.945312 5.328125 -7 C 5.554688 -7.0625 5.738281 -7.144531 5.875 -7.25 C 6.019531 -7.363281 6.140625 -7.523438 6.234375 -7.734375 C 6.335938 -7.953125 6.390625 -8.207031 6.390625 -8.5 C 6.390625 -8.800781 6.335938 -9.054688 6.234375 -9.265625 C 6.140625 -9.472656 6.019531 -9.632812 5.875 -9.75 C 5.738281 -9.863281 5.554688 -9.945312 5.328125 -10 C 5.097656 -10.0625 4.890625 -10.097656 4.703125 -10.109375 C 4.523438 -10.117188 4.304688 -10.125 4.046875 -10.125 L 3.71875 -10.125 Z M 3.71875 -6.890625 "/></g></g></g><g fill="#074200" fill-opacity="1"><g transform="translate(200.384436, 307.948602)"><g><path d="M 0.34375 -6.1875 C 0.34375 -7.976562 0.953125 -9.492188 2.171875 -10.734375 C 3.390625 -11.972656 4.859375 -12.59375 6.578125 -12.59375 C 8.316406 -12.59375 9.789062 -11.972656 11 -10.734375 C 12.207031 -9.503906 12.8125 -7.988281 12.8125 -6.1875 C 12.8125 -4.382812 12.210938 -2.863281 11.015625 -1.625 C 9.828125 -0.394531 8.347656 0.21875 6.578125 0.21875 C 4.773438 0.21875 3.285156 -0.390625 2.109375 -1.609375 C 0.929688 -2.835938 0.34375 -4.363281 0.34375 -6.1875 Z M 3.390625 -6.1875 C 3.390625 -5.539062 3.488281 -4.945312 3.6875 -4.40625 C 3.882812 -3.875 4.234375 -3.421875 4.734375 -3.046875 C 5.234375 -2.679688 5.847656 -2.5 6.578125 -2.5 C 7.628906 -2.5 8.421875 -2.859375 8.953125 -3.578125 C 9.492188 -4.304688 9.765625 -5.175781 9.765625 -6.1875 C 9.765625 -7.195312 9.488281 -8.066406 8.9375 -8.796875 C 8.394531 -9.523438 7.609375 -9.890625 6.578125 -9.890625 C 5.566406 -9.890625 4.78125 -9.523438 4.21875 -8.796875 C 3.664062 -8.066406 3.390625 -7.195312 3.390625 -6.1875 Z M 3.390625 -6.1875 "/></g></g></g><g fill="#074200" fill-opacity="1"><g transform="translate(215.909513, 307.948602)"><g><path d="M 12.09375 -6.9375 L 12.09375 -4.25 C 11.769531 -2.78125 11.066406 -1.664062 9.984375 -0.90625 C 8.910156 -0.15625 7.707031 0.21875 6.375 0.21875 C 4.707031 0.21875 3.285156 -0.40625 2.109375 -1.65625 C 0.929688 -2.90625 0.34375 -4.414062 0.34375 -6.1875 C 0.34375 -7.976562 0.914062 -9.492188 2.0625 -10.734375 C 3.21875 -11.972656 4.65625 -12.59375 6.375 -12.59375 C 8.382812 -12.59375 9.972656 -11.890625 11.140625 -10.484375 L 9.296875 -8.453125 C 8.640625 -9.515625 7.722656 -10.046875 6.546875 -10.046875 C 5.671875 -10.046875 4.925781 -9.664062 4.3125 -8.90625 C 3.695312 -8.15625 3.390625 -7.25 3.390625 -6.1875 C 3.390625 -5.132812 3.695312 -4.234375 4.3125 -3.484375 C 4.925781 -2.742188 5.671875 -2.375 6.546875 -2.375 C 7.265625 -2.375 7.890625 -2.585938 8.421875 -3.015625 C 8.953125 -3.453125 9.21875 -4.03125 9.21875 -4.75 L 6.375 -4.75 L 6.375 -6.9375 Z M 12.09375 -6.9375 "/></g></g></g><g fill="#074200" fill-opacity="1"><g transform="translate(230.714596, 307.948602)"><g><path d="M 0.90625 -12.375 L 5.328125 -12.375 C 6.515625 -12.375 7.484375 -12.054688 8.234375 -11.421875 C 8.984375 -10.785156 9.359375 -9.878906 9.359375 -8.703125 C 9.359375 -7.785156 9.128906 -7.019531 8.671875 -6.40625 C 8.222656 -5.789062 7.609375 -5.359375 6.828125 -5.109375 L 11.078125 0 L 7.5 0 L 3.71875 -4.890625 L 3.71875 0 L 0.90625 0 Z M 3.71875 -6.890625 L 4.046875 -6.890625 C 4.304688 -6.890625 4.523438 -6.894531 4.703125 -6.90625 C 4.890625 -6.914062 5.097656 -6.945312 5.328125 -7 C 5.554688 -7.0625 5.738281 -7.144531 5.875 -7.25 C 6.019531 -7.363281 6.140625 -7.523438 6.234375 -7.734375 C 6.335938 -7.953125 6.390625 -8.207031 6.390625 -8.5 C 6.390625 -8.800781 6.335938 -9.054688 6.234375 -9.265625 C 6.140625 -9.472656 6.019531 -9.632812 5.875 -9.75 C 5.738281 -9.863281 5.554688 -9.945312 5.328125 -10 C 5.097656 -10.0625 4.890625 -10.097656 4.703125 -10.109375 C 4.523438 -10.117188 4.304688 -10.125 4.046875 -10.125 L 3.71875 -10.125 Z M 3.71875 -6.890625 "/></g></g></g><g fill="#074200" fill-opacity="1"><g transform="translate(243.824673, 307.948602)"><g><path d="M 7.1875 -12.375 L 12.1875 0 L 9.15625 0 L 8.234375 -2.46875 L 3.53125 -2.46875 L 2.609375 0 L -0.421875 0 L 4.578125 -12.375 Z M 7.28125 -4.953125 L 5.890625 -8.546875 L 5.859375 -8.546875 L 4.484375 -4.953125 Z M 7.28125 -4.953125 "/></g></g></g><g fill="#074200" fill-opacity="1"><g transform="translate(257.95476, 307.948602)"><g><path d="M 11.125 0 L 10.546875 -7.328125 L 10.46875 -7.328125 L 7.9375 -0.078125 L 6.25 -0.078125 L 3.71875 -7.328125 L 3.640625 -7.328125 L 3.0625 0 L 0.234375 0 L 1.34375 -12.375 L 4.34375 -12.375 L 7.09375 -5.234375 L 9.84375 -12.375 L 12.84375 -12.375 L 13.953125 0 Z M 11.125 0 "/></g></g></g><g fill="#074200" fill-opacity="1"><g transform="translate(274.514841, 307.948602)"><g/></g></g><g fill="#074200" fill-opacity="1"><g transform="translate(280.979928, 307.948602)"><g><path d="M 10.390625 0 L 8.421875 -6.9375 L 6.4375 0 L 3.296875 0 L -0.21875 -12.375 L 2.90625 -12.375 L 5.03125 -3.890625 L 5.09375 -3.890625 L 7.34375 -12.375 L 9.484375 -12.375 L 11.734375 -3.890625 L 11.8125 -3.890625 L 13.921875 -12.375 L 17.046875 -12.375 L 13.515625 0 Z M 10.390625 0 "/></g></g></g><g fill="#074200" fill-opacity="1"><g transform="translate(300.165009, 307.948602)"><g><path d="M 3.71875 -12.375 L 3.71875 0 L 0.90625 0 L 0.90625 -12.375 Z M 3.71875 -12.375 "/></g></g></g><g fill="#074200" fill-opacity="1"><g transform="translate(307.155083, 307.948602)"><g><path d="M 3.71875 -7.6875 L 3.71875 0 L 0.90625 0 L 0.90625 -12.375 L 3.71875 -12.375 L 8.640625 -4.6875 L 8.671875 -4.6875 L 8.671875 -12.375 L 11.484375 -12.375 L 11.484375 0 L 8.671875 0 L 3.75 -7.6875 Z M 3.71875 -7.6875 "/></g></g></g><g fill="#074200" fill-opacity="1"><g transform="translate(321.915168, 307.948602)"><g><path d="M 12.09375 -6.9375 L 12.09375 -4.25 C 11.769531 -2.78125 11.066406 -1.664062 9.984375 -0.90625 C 8.910156 -0.15625 7.707031 0.21875 6.375 0.21875 C 4.707031 0.21875 3.285156 -0.40625 2.109375 -1.65625 C 0.929688 -2.90625 0.34375 -4.414062 0.34375 -6.1875 C 0.34375 -7.976562 0.914062 -9.492188 2.0625 -10.734375 C 3.21875 -11.972656 4.65625 -12.59375 6.375 -12.59375 C 8.382812 -12.59375 9.972656 -11.890625 11.140625 -10.484375 L 9.296875 -8.453125 C 8.640625 -9.515625 7.722656 -10.046875 6.546875 -10.046875 C 5.671875 -10.046875 4.925781 -9.664062 4.3125 -8.90625 C 3.695312 -8.15625 3.390625 -7.25 3.390625 -6.1875 C 3.390625 -5.132812 3.695312 -4.234375 4.3125 -3.484375 C 4.925781 -2.742188 5.671875 -2.375 6.546875 -2.375 C 7.265625 -2.375 7.890625 -2.585938 8.421875 -3.015625 C 8.953125 -3.453125 9.21875 -4.03125 9.21875 -4.75 L 6.375 -4.75 L 6.375 -6.9375 Z M 12.09375 -6.9375 "/></g></g></g></svg>